<mxfile host="app.diagrams.net" modified="2021-07-02T06:24:03.786Z" agent="5.0 (Windows NT 10.0; Win64; x64) AppleWebKit/537.36 (KHTML, like Gecko) Chrome/90.0.4430.212 Safari/537.36" etag="qzAUvWftSJwXBmeaj_WJ" version="14.8.3" type="github">
  <diagram id="I4QX_Wi00SEaCnopN8A2" name="第 1 页">
    <mxGraphModel dx="1038" dy="548" grid="1" gridSize="10" guides="1" tooltips="1" connect="1" arrows="1" fold="1" page="1" pageScale="1" pageWidth="1200" pageHeight="1920" math="0" shadow="0">
      <root>
        <mxCell id="0" />
        <mxCell id="1" parent="0" />
        <mxCell id="4vib8y3hYMlXYEkq_KwY-48" value="" style="edgeStyle=orthogonalEdgeStyle;rounded=0;orthogonalLoop=1;jettySize=auto;html=1;" edge="1" parent="1" source="4vib8y3hYMlXYEkq_KwY-1" target="4vib8y3hYMlXYEkq_KwY-47">
          <mxGeometry relative="1" as="geometry" />
        </mxCell>
        <mxCell id="4vib8y3hYMlXYEkq_KwY-1" value="Producer" style="rounded=0;whiteSpace=wrap;html=1;" vertex="1" parent="1">
          <mxGeometry x="180" y="230" width="120" height="100" as="geometry" />
        </mxCell>
        <mxCell id="4vib8y3hYMlXYEkq_KwY-50" value="" style="edgeStyle=orthogonalEdgeStyle;rounded=0;orthogonalLoop=1;jettySize=auto;html=1;" edge="1" parent="1" source="4vib8y3hYMlXYEkq_KwY-2" target="4vib8y3hYMlXYEkq_KwY-49">
          <mxGeometry relative="1" as="geometry" />
        </mxCell>
        <mxCell id="4vib8y3hYMlXYEkq_KwY-2" value="Broker" style="rounded=0;whiteSpace=wrap;html=1;" vertex="1" parent="1">
          <mxGeometry x="500" y="230" width="140" height="100" as="geometry" />
        </mxCell>
        <mxCell id="4vib8y3hYMlXYEkq_KwY-65" value="" style="edgeStyle=orthogonalEdgeStyle;rounded=0;orthogonalLoop=1;jettySize=auto;html=1;" edge="1" parent="1" source="4vib8y3hYMlXYEkq_KwY-3" target="4vib8y3hYMlXYEkq_KwY-58">
          <mxGeometry relative="1" as="geometry" />
        </mxCell>
        <mxCell id="4vib8y3hYMlXYEkq_KwY-3" value="&lt;span style=&quot;color: rgb(36 , 41 , 46) ; font-family: , &amp;#34;blinkmacsystemfont&amp;#34; , &amp;#34;segoe ui&amp;#34; , &amp;#34;helvetica&amp;#34; , &amp;#34;arial&amp;#34; , sans-serif , &amp;#34;apple color emoji&amp;#34; , &amp;#34;segoe ui emoji&amp;#34; ; font-size: 16px ; background-color: rgb(255 , 255 , 255)&quot;&gt;ConsumerGroup&amp;nbsp;&lt;/span&gt;" style="rounded=0;whiteSpace=wrap;html=1;" vertex="1" parent="1">
          <mxGeometry x="820" y="230" width="140" height="90" as="geometry" />
        </mxCell>
        <mxCell id="4vib8y3hYMlXYEkq_KwY-4" value="" style="shape=table;html=1;whiteSpace=wrap;startSize=0;container=1;collapsible=0;childLayout=tableLayout;" vertex="1" parent="1">
          <mxGeometry x="500" y="330" width="140" height="160" as="geometry" />
        </mxCell>
        <mxCell id="4vib8y3hYMlXYEkq_KwY-5" value="" style="shape=partialRectangle;html=1;whiteSpace=wrap;collapsible=0;dropTarget=0;pointerEvents=0;fillColor=none;top=0;left=0;bottom=0;right=0;points=[[0,0.5],[1,0.5]];portConstraint=eastwest;" vertex="1" parent="4vib8y3hYMlXYEkq_KwY-4">
          <mxGeometry width="140" height="40" as="geometry" />
        </mxCell>
        <mxCell id="4vib8y3hYMlXYEkq_KwY-6" value="Topic" style="shape=partialRectangle;html=1;whiteSpace=wrap;connectable=0;fillColor=none;top=0;left=0;bottom=0;right=0;overflow=hidden;" vertex="1" parent="4vib8y3hYMlXYEkq_KwY-5">
          <mxGeometry width="140" height="40" as="geometry" />
        </mxCell>
        <mxCell id="4vib8y3hYMlXYEkq_KwY-18" style="shape=partialRectangle;html=1;whiteSpace=wrap;collapsible=0;dropTarget=0;pointerEvents=0;fillColor=none;top=0;left=0;bottom=0;right=0;points=[[0,0.5],[1,0.5]];portConstraint=eastwest;" vertex="1" parent="4vib8y3hYMlXYEkq_KwY-4">
          <mxGeometry y="40" width="140" height="40" as="geometry" />
        </mxCell>
        <mxCell id="4vib8y3hYMlXYEkq_KwY-19" value="&lt;span&gt;Topic&lt;/span&gt;" style="shape=partialRectangle;html=1;whiteSpace=wrap;connectable=0;fillColor=none;top=0;left=0;bottom=0;right=0;overflow=hidden;" vertex="1" parent="4vib8y3hYMlXYEkq_KwY-18">
          <mxGeometry width="140" height="40" as="geometry" />
        </mxCell>
        <mxCell id="4vib8y3hYMlXYEkq_KwY-9" value="" style="shape=partialRectangle;html=1;whiteSpace=wrap;collapsible=0;dropTarget=0;pointerEvents=0;fillColor=none;top=0;left=0;bottom=0;right=0;points=[[0,0.5],[1,0.5]];portConstraint=eastwest;" vertex="1" parent="4vib8y3hYMlXYEkq_KwY-4">
          <mxGeometry y="80" width="140" height="40" as="geometry" />
        </mxCell>
        <mxCell id="4vib8y3hYMlXYEkq_KwY-10" value="&lt;span&gt;Topic&lt;/span&gt;" style="shape=partialRectangle;html=1;whiteSpace=wrap;connectable=0;fillColor=none;top=0;left=0;bottom=0;right=0;overflow=hidden;" vertex="1" parent="4vib8y3hYMlXYEkq_KwY-9">
          <mxGeometry width="140" height="40" as="geometry" />
        </mxCell>
        <mxCell id="4vib8y3hYMlXYEkq_KwY-13" value="" style="shape=partialRectangle;html=1;whiteSpace=wrap;collapsible=0;dropTarget=0;pointerEvents=0;fillColor=none;top=0;left=0;bottom=0;right=0;points=[[0,0.5],[1,0.5]];portConstraint=eastwest;" vertex="1" parent="4vib8y3hYMlXYEkq_KwY-4">
          <mxGeometry y="120" width="140" height="40" as="geometry" />
        </mxCell>
        <mxCell id="4vib8y3hYMlXYEkq_KwY-14" value="&lt;span&gt;Topic&lt;/span&gt;" style="shape=partialRectangle;html=1;whiteSpace=wrap;connectable=0;fillColor=none;top=0;left=0;bottom=0;right=0;overflow=hidden;" vertex="1" parent="4vib8y3hYMlXYEkq_KwY-13">
          <mxGeometry width="140" height="40" as="geometry" />
        </mxCell>
        <mxCell id="4vib8y3hYMlXYEkq_KwY-20" value="" style="shape=table;html=1;whiteSpace=wrap;startSize=0;container=1;collapsible=0;childLayout=tableLayout;" vertex="1" parent="1">
          <mxGeometry x="730" y="370" width="140" height="200" as="geometry" />
        </mxCell>
        <mxCell id="4vib8y3hYMlXYEkq_KwY-21" value="" style="shape=partialRectangle;html=1;whiteSpace=wrap;collapsible=0;dropTarget=0;pointerEvents=0;fillColor=none;top=0;left=0;bottom=0;right=0;points=[[0,0.5],[1,0.5]];portConstraint=eastwest;" vertex="1" parent="4vib8y3hYMlXYEkq_KwY-20">
          <mxGeometry width="140" height="40" as="geometry" />
        </mxCell>
        <mxCell id="4vib8y3hYMlXYEkq_KwY-22" value="MessageQueue" style="shape=partialRectangle;html=1;whiteSpace=wrap;connectable=0;fillColor=none;top=0;left=0;bottom=0;right=0;overflow=hidden;" vertex="1" parent="4vib8y3hYMlXYEkq_KwY-21">
          <mxGeometry width="140" height="40" as="geometry" />
        </mxCell>
        <mxCell id="4vib8y3hYMlXYEkq_KwY-25" value="" style="shape=partialRectangle;html=1;whiteSpace=wrap;collapsible=0;dropTarget=0;pointerEvents=0;fillColor=none;top=0;left=0;bottom=0;right=0;points=[[0,0.5],[1,0.5]];portConstraint=eastwest;" vertex="1" parent="4vib8y3hYMlXYEkq_KwY-20">
          <mxGeometry y="40" width="140" height="40" as="geometry" />
        </mxCell>
        <mxCell id="4vib8y3hYMlXYEkq_KwY-26" value="&lt;span&gt;MessageQueue&lt;/span&gt;" style="shape=partialRectangle;html=1;whiteSpace=wrap;connectable=0;fillColor=none;top=0;left=0;bottom=0;right=0;overflow=hidden;" vertex="1" parent="4vib8y3hYMlXYEkq_KwY-25">
          <mxGeometry width="140" height="40" as="geometry" />
        </mxCell>
        <mxCell id="4vib8y3hYMlXYEkq_KwY-29" value="" style="shape=partialRectangle;html=1;whiteSpace=wrap;collapsible=0;dropTarget=0;pointerEvents=0;fillColor=none;top=0;left=0;bottom=0;right=0;points=[[0,0.5],[1,0.5]];portConstraint=eastwest;" vertex="1" parent="4vib8y3hYMlXYEkq_KwY-20">
          <mxGeometry y="80" width="140" height="40" as="geometry" />
        </mxCell>
        <mxCell id="4vib8y3hYMlXYEkq_KwY-30" value="&lt;span&gt;MessageQueue&lt;/span&gt;" style="shape=partialRectangle;html=1;whiteSpace=wrap;connectable=0;fillColor=none;top=0;left=0;bottom=0;right=0;overflow=hidden;" vertex="1" parent="4vib8y3hYMlXYEkq_KwY-29">
          <mxGeometry width="140" height="40" as="geometry" />
        </mxCell>
        <mxCell id="4vib8y3hYMlXYEkq_KwY-39" style="shape=partialRectangle;html=1;whiteSpace=wrap;collapsible=0;dropTarget=0;pointerEvents=0;fillColor=none;top=0;left=0;bottom=0;right=0;points=[[0,0.5],[1,0.5]];portConstraint=eastwest;" vertex="1" parent="4vib8y3hYMlXYEkq_KwY-20">
          <mxGeometry y="120" width="140" height="40" as="geometry" />
        </mxCell>
        <mxCell id="4vib8y3hYMlXYEkq_KwY-40" value="&lt;span&gt;MessageQueue&lt;/span&gt;" style="shape=partialRectangle;html=1;whiteSpace=wrap;connectable=0;fillColor=none;top=0;left=0;bottom=0;right=0;overflow=hidden;" vertex="1" parent="4vib8y3hYMlXYEkq_KwY-39">
          <mxGeometry width="140" height="40" as="geometry" />
        </mxCell>
        <mxCell id="4vib8y3hYMlXYEkq_KwY-41" style="shape=partialRectangle;html=1;whiteSpace=wrap;collapsible=0;dropTarget=0;pointerEvents=0;fillColor=none;top=0;left=0;bottom=0;right=0;points=[[0,0.5],[1,0.5]];portConstraint=eastwest;" vertex="1" parent="4vib8y3hYMlXYEkq_KwY-20">
          <mxGeometry y="160" width="140" height="40" as="geometry" />
        </mxCell>
        <mxCell id="4vib8y3hYMlXYEkq_KwY-42" value="&lt;span&gt;MessageQueue&lt;/span&gt;" style="shape=partialRectangle;html=1;whiteSpace=wrap;connectable=0;fillColor=none;top=0;left=0;bottom=0;right=0;overflow=hidden;" vertex="1" parent="4vib8y3hYMlXYEkq_KwY-41">
          <mxGeometry width="140" height="40" as="geometry" />
        </mxCell>
        <mxCell id="4vib8y3hYMlXYEkq_KwY-36" value="" style="edgeStyle=orthogonalEdgeStyle;rounded=0;orthogonalLoop=1;jettySize=auto;html=1;entryX=0;entryY=0.5;entryDx=0;entryDy=0;" edge="1" parent="1" source="4vib8y3hYMlXYEkq_KwY-9" target="4vib8y3hYMlXYEkq_KwY-39">
          <mxGeometry relative="1" as="geometry">
            <Array as="points">
              <mxPoint x="670" y="430" />
              <mxPoint x="670" y="510" />
            </Array>
          </mxGeometry>
        </mxCell>
        <mxCell id="4vib8y3hYMlXYEkq_KwY-37" value="" style="edgeStyle=orthogonalEdgeStyle;rounded=0;orthogonalLoop=1;jettySize=auto;html=1;exitX=1;exitY=0.5;exitDx=0;exitDy=0;entryX=0;entryY=0.5;entryDx=0;entryDy=0;" edge="1" parent="1" source="4vib8y3hYMlXYEkq_KwY-9" target="4vib8y3hYMlXYEkq_KwY-25">
          <mxGeometry relative="1" as="geometry">
            <mxPoint x="650" y="440" as="sourcePoint" />
            <mxPoint x="740" y="480" as="targetPoint" />
          </mxGeometry>
        </mxCell>
        <mxCell id="4vib8y3hYMlXYEkq_KwY-38" value="" style="edgeStyle=orthogonalEdgeStyle;rounded=0;orthogonalLoop=1;jettySize=auto;html=1;entryX=0;entryY=0.5;entryDx=0;entryDy=0;" edge="1" parent="1" target="4vib8y3hYMlXYEkq_KwY-21">
          <mxGeometry relative="1" as="geometry">
            <mxPoint x="640" y="430" as="sourcePoint" />
            <mxPoint x="740" y="440" as="targetPoint" />
            <Array as="points">
              <mxPoint x="670" y="430" />
              <mxPoint x="670" y="390" />
            </Array>
          </mxGeometry>
        </mxCell>
        <mxCell id="4vib8y3hYMlXYEkq_KwY-47" value="" style="shape=waypoint;size=6;pointerEvents=1;points=[];fillColor=#ffffff;resizable=0;rotatable=0;perimeter=centerPerimeter;snapToPoint=1;rounded=0;" vertex="1" parent="1">
          <mxGeometry x="480" y="260" width="40" height="40" as="geometry" />
        </mxCell>
        <mxCell id="4vib8y3hYMlXYEkq_KwY-49" value="" style="shape=waypoint;size=6;pointerEvents=1;points=[];fillColor=#ffffff;resizable=0;rotatable=0;perimeter=centerPerimeter;snapToPoint=1;rounded=0;" vertex="1" parent="1">
          <mxGeometry x="800" y="260" width="40" height="40" as="geometry" />
        </mxCell>
        <mxCell id="4vib8y3hYMlXYEkq_KwY-51" value="" style="shape=table;html=1;whiteSpace=wrap;startSize=0;container=1;collapsible=0;childLayout=tableLayout;" vertex="1" parent="1">
          <mxGeometry x="1030" y="180" width="140" height="200" as="geometry" />
        </mxCell>
        <mxCell id="4vib8y3hYMlXYEkq_KwY-52" value="" style="shape=partialRectangle;html=1;whiteSpace=wrap;collapsible=0;dropTarget=0;pointerEvents=0;fillColor=none;top=0;left=0;bottom=0;right=0;points=[[0,0.5],[1,0.5]];portConstraint=eastwest;" vertex="1" parent="4vib8y3hYMlXYEkq_KwY-51">
          <mxGeometry width="140" height="40" as="geometry" />
        </mxCell>
        <mxCell id="4vib8y3hYMlXYEkq_KwY-53" value="consumer1" style="shape=partialRectangle;html=1;whiteSpace=wrap;connectable=0;fillColor=none;top=0;left=0;bottom=0;right=0;overflow=hidden;" vertex="1" parent="4vib8y3hYMlXYEkq_KwY-52">
          <mxGeometry width="140" height="40" as="geometry" />
        </mxCell>
        <mxCell id="4vib8y3hYMlXYEkq_KwY-54" value="" style="shape=partialRectangle;html=1;whiteSpace=wrap;collapsible=0;dropTarget=0;pointerEvents=0;fillColor=none;top=0;left=0;bottom=0;right=0;points=[[0,0.5],[1,0.5]];portConstraint=eastwest;" vertex="1" parent="4vib8y3hYMlXYEkq_KwY-51">
          <mxGeometry y="40" width="140" height="40" as="geometry" />
        </mxCell>
        <mxCell id="4vib8y3hYMlXYEkq_KwY-55" value="consumer2" style="shape=partialRectangle;html=1;whiteSpace=wrap;connectable=0;fillColor=none;top=0;left=0;bottom=0;right=0;overflow=hidden;" vertex="1" parent="4vib8y3hYMlXYEkq_KwY-54">
          <mxGeometry width="140" height="40" as="geometry" />
        </mxCell>
        <mxCell id="4vib8y3hYMlXYEkq_KwY-56" value="" style="shape=partialRectangle;html=1;whiteSpace=wrap;collapsible=0;dropTarget=0;pointerEvents=0;fillColor=none;top=0;left=0;bottom=0;right=0;points=[[0,0.5],[1,0.5]];portConstraint=eastwest;" vertex="1" parent="4vib8y3hYMlXYEkq_KwY-51">
          <mxGeometry y="80" width="140" height="40" as="geometry" />
        </mxCell>
        <mxCell id="4vib8y3hYMlXYEkq_KwY-57" value="consumer3" style="shape=partialRectangle;html=1;whiteSpace=wrap;connectable=0;fillColor=none;top=0;left=0;bottom=0;right=0;overflow=hidden;" vertex="1" parent="4vib8y3hYMlXYEkq_KwY-56">
          <mxGeometry width="140" height="40" as="geometry" />
        </mxCell>
        <mxCell id="4vib8y3hYMlXYEkq_KwY-58" style="shape=partialRectangle;html=1;whiteSpace=wrap;collapsible=0;dropTarget=0;pointerEvents=0;fillColor=none;top=0;left=0;bottom=0;right=0;points=[[0,0.5],[1,0.5]];portConstraint=eastwest;" vertex="1" parent="4vib8y3hYMlXYEkq_KwY-51">
          <mxGeometry y="120" width="140" height="40" as="geometry" />
        </mxCell>
        <mxCell id="4vib8y3hYMlXYEkq_KwY-59" value="consumer4" style="shape=partialRectangle;html=1;whiteSpace=wrap;connectable=0;fillColor=none;top=0;left=0;bottom=0;right=0;overflow=hidden;" vertex="1" parent="4vib8y3hYMlXYEkq_KwY-58">
          <mxGeometry width="140" height="40" as="geometry" />
        </mxCell>
        <mxCell id="4vib8y3hYMlXYEkq_KwY-60" style="shape=partialRectangle;html=1;whiteSpace=wrap;collapsible=0;dropTarget=0;pointerEvents=0;fillColor=none;top=0;left=0;bottom=0;right=0;points=[[0,0.5],[1,0.5]];portConstraint=eastwest;" vertex="1" parent="4vib8y3hYMlXYEkq_KwY-51">
          <mxGeometry y="160" width="140" height="40" as="geometry" />
        </mxCell>
        <mxCell id="4vib8y3hYMlXYEkq_KwY-61" value="consumer5" style="shape=partialRectangle;html=1;whiteSpace=wrap;connectable=0;fillColor=none;top=0;left=0;bottom=0;right=0;overflow=hidden;" vertex="1" parent="4vib8y3hYMlXYEkq_KwY-60">
          <mxGeometry width="140" height="40" as="geometry" />
        </mxCell>
        <mxCell id="4vib8y3hYMlXYEkq_KwY-66" value="" style="edgeStyle=orthogonalEdgeStyle;rounded=0;orthogonalLoop=1;jettySize=auto;html=1;exitX=1;exitY=0.5;exitDx=0;exitDy=0;" edge="1" parent="1" source="4vib8y3hYMlXYEkq_KwY-3" target="4vib8y3hYMlXYEkq_KwY-52">
          <mxGeometry relative="1" as="geometry">
            <mxPoint x="970" y="285" as="sourcePoint" />
            <mxPoint x="1040" y="330" as="targetPoint" />
          </mxGeometry>
        </mxCell>
        <mxCell id="4vib8y3hYMlXYEkq_KwY-67" value="" style="edgeStyle=orthogonalEdgeStyle;rounded=0;orthogonalLoop=1;jettySize=auto;html=1;exitX=1;exitY=0.5;exitDx=0;exitDy=0;entryX=0;entryY=0.5;entryDx=0;entryDy=0;" edge="1" parent="1" source="4vib8y3hYMlXYEkq_KwY-3" target="4vib8y3hYMlXYEkq_KwY-54">
          <mxGeometry relative="1" as="geometry">
            <mxPoint x="970" y="285" as="sourcePoint" />
            <mxPoint x="1040" y="210" as="targetPoint" />
          </mxGeometry>
        </mxCell>
        <mxCell id="4vib8y3hYMlXYEkq_KwY-68" value="" style="edgeStyle=orthogonalEdgeStyle;rounded=0;orthogonalLoop=1;jettySize=auto;html=1;exitX=1;exitY=0.5;exitDx=0;exitDy=0;entryX=0;entryY=0.5;entryDx=0;entryDy=0;" edge="1" parent="1" source="4vib8y3hYMlXYEkq_KwY-3" target="4vib8y3hYMlXYEkq_KwY-56">
          <mxGeometry relative="1" as="geometry">
            <mxPoint x="970" y="285" as="sourcePoint" />
            <mxPoint x="1040" y="250" as="targetPoint" />
          </mxGeometry>
        </mxCell>
        <mxCell id="4vib8y3hYMlXYEkq_KwY-69" value="" style="edgeStyle=orthogonalEdgeStyle;rounded=0;orthogonalLoop=1;jettySize=auto;html=1;exitX=1;exitY=0.5;exitDx=0;exitDy=0;entryX=0;entryY=0.5;entryDx=0;entryDy=0;entryPerimeter=0;" edge="1" parent="1" source="4vib8y3hYMlXYEkq_KwY-3" target="4vib8y3hYMlXYEkq_KwY-60">
          <mxGeometry relative="1" as="geometry">
            <mxPoint x="980" y="295" as="sourcePoint" />
            <mxPoint x="1050" y="260" as="targetPoint" />
          </mxGeometry>
        </mxCell>
        <mxCell id="4vib8y3hYMlXYEkq_KwY-72" value="一个ConsumerGroup包含多个consumer实例" style="text;html=1;strokeColor=none;fillColor=none;align=center;verticalAlign=middle;whiteSpace=wrap;rounded=0;" vertex="1" parent="1">
          <mxGeometry x="850" y="120" width="250" height="50" as="geometry" />
        </mxCell>
        <mxCell id="4vib8y3hYMlXYEkq_KwY-73" value="一个Topic可以存储于多个MessageQueue" style="text;html=1;strokeColor=none;fillColor=none;align=center;verticalAlign=middle;whiteSpace=wrap;rounded=0;" vertex="1" parent="1">
          <mxGeometry x="520" y="570" width="250" height="50" as="geometry" />
        </mxCell>
        <mxCell id="4vib8y3hYMlXYEkq_KwY-74" value="生产消息" style="text;html=1;strokeColor=none;fillColor=none;align=center;verticalAlign=middle;whiteSpace=wrap;rounded=0;" vertex="1" parent="1">
          <mxGeometry x="160" y="170" width="155" height="50" as="geometry" />
        </mxCell>
        <mxCell id="4vib8y3hYMlXYEkq_KwY-75" value="存储消息" style="text;html=1;strokeColor=none;fillColor=none;align=center;verticalAlign=middle;whiteSpace=wrap;rounded=0;" vertex="1" parent="1">
          <mxGeometry x="485" y="160" width="155" height="50" as="geometry" />
        </mxCell>
        <mxCell id="4vib8y3hYMlXYEkq_KwY-76" value="消费消息" style="text;html=1;strokeColor=none;fillColor=none;align=center;verticalAlign=middle;whiteSpace=wrap;rounded=0;" vertex="1" parent="1">
          <mxGeometry x="800" y="160" width="155" height="50" as="geometry" />
        </mxCell>
      </root>
    </mxGraphModel>
  </diagram>
</mxfile>
